<svg width="160" height="209" viewBox="0 0 160 209" fill="none" xmlns="http://www.w3.org/2000/svg">
    <path d="M13.0685 127.016L12.0514 123.56L15.8984 120.079L15.6013 119.074L11.1249 120.409L10.2488 117.43L22.2831 113.842L23.693 118.643C24.0706 119.927 23.985 121.048 23.4412 122.012C22.8974 122.977 22.0968 123.616 21.0344 123.931C20.2791 124.154 19.5792 124.154 18.9296 123.931C18.2801 123.702 17.7413 123.357 17.3133 122.895L13.0685 127.016ZM19.2116 120.85C19.5238 121.018 19.841 121.053 20.1683 120.952C20.4956 120.85 20.7423 120.652 20.9185 120.338C21.0897 120.028 21.12 119.678 21.0092 119.292L20.5157 117.607L18.0837 118.333L18.5771 120.018C18.6829 120.409 18.8994 120.683 19.2116 120.85Z"
          fill="white"/>
    <path d="M18.8767 138.989L17.4165 136.092L18.8214 134.716L17.0791 131.245L15.1355 131.539L13.6753 128.642L26.9332 127.028L28.0108 129.164L18.8767 138.989ZM20.7499 132.818L23.2574 130.342L19.763 130.854L20.7499 132.818Z"
          fill="white"/>
    <path d="M27.9874 144.208C26.8595 145.045 25.7114 145.309 24.5382 145.015C23.365 144.715 22.3982 144.045 21.6379 143.01C21.1998 142.411 20.9078 141.838 20.7668 141.295C20.6258 140.752 20.6107 140.128 20.7164 139.412L23.5362 139.859C23.4456 140.452 23.5513 140.96 23.8484 141.366C24.1455 141.777 24.4979 142.016 24.9058 142.081C25.3137 142.147 25.7467 142.01 26.2099 141.665L32.7961 136.778L34.6239 139.28L27.9874 144.208Z"
          fill="white"/>
    <path d="M33.985 156.669L31.689 154.385L32.5852 152.634L29.836 149.904L28.0837 150.807L25.7876 148.523L37.8521 142.753L39.544 144.438L33.985 156.669ZM33.8189 150.213L35.4201 147.062L32.263 148.666L33.8189 150.213Z"
          fill="white"/>
    <path d="M49.4954 162.187C48.6092 163.227 47.6223 163.821 46.5346 163.973C45.447 164.125 44.3745 163.882 43.3221 163.237C42.1137 162.502 41.3584 161.497 41.0512 160.233C40.9455 159.812 40.9052 159.396 40.9304 158.995C40.9505 158.594 41.0562 158.167 41.2476 157.716C41.4389 157.264 41.6101 156.889 41.7713 156.584C41.9324 156.28 42.1892 155.838 42.5417 155.249C42.8941 154.661 43.166 154.224 43.3574 153.94C43.5487 153.656 43.8005 153.326 44.1076 152.945C44.4198 152.565 44.7421 152.275 45.0895 152.067C45.4319 151.859 45.8146 151.707 46.2325 151.6C47.4913 151.291 48.725 151.499 49.9284 152.235C50.9858 152.879 51.6958 153.722 52.0634 154.762C52.431 155.803 52.3655 156.96 51.862 158.233L49.1782 156.594C49.4299 155.696 49.2033 155.031 48.4984 154.6C48.0351 154.316 47.5971 154.26 47.1842 154.422C46.9324 154.519 46.6706 154.722 46.3936 155.031C46.1167 155.341 45.7088 155.945 45.1701 156.848C44.6263 157.751 44.2839 158.396 44.1429 158.787C43.9969 159.177 43.9415 159.502 43.9717 159.771C44.022 160.218 44.2738 160.578 44.737 160.862C45.442 161.294 46.1268 161.187 46.8015 160.543L49.4954 162.187Z"
          fill="white"/>
    <path d="M57.8256 169.965L50.0713 166.839L54.7289 155.095L57.594 156.247L53.9535 165.418L58.8478 167.392L57.8256 169.965Z"
          fill="white"/>
    <path d="M70.3884 168.407C70.1014 169.726 69.4217 170.696 68.3391 171.32C67.2615 171.944 66.0682 172.112 64.759 171.822C63.4498 171.533 62.4427 170.883 61.7277 169.863C61.0178 168.848 60.8063 167.676 61.0883 166.362L62.8305 158.343L65.8416 159.008L64.1145 166.955C63.9936 167.524 64.0389 167.996 64.2555 168.376C64.472 168.757 64.8345 169.006 65.338 169.117C65.8416 169.229 66.2796 169.158 66.6472 168.904C67.0148 168.65 67.2615 168.244 67.3824 167.676L69.1095 159.729L72.1206 160.393L70.3884 168.407Z"
          fill="white"/>
    <path d="M82.6555 169.788C82.6152 170.96 82.2174 171.858 81.4672 172.493C80.7169 173.122 79.7652 173.422 78.6172 173.381L73.1589 173.188L73.592 160.546L78.7884 160.729C80.0673 160.775 81.0442 161.14 81.7139 161.825C82.3836 162.51 82.7008 163.414 82.6605 164.525C82.6253 165.566 82.1368 166.383 81.2003 166.981C81.3866 167.108 81.5377 167.22 81.6635 167.327C81.7894 167.433 81.9405 167.596 82.1217 167.824C82.303 168.047 82.439 168.331 82.5346 168.666C82.6303 169.001 82.6655 169.372 82.6555 169.788ZM79.2768 170.28C79.4681 170.067 79.5689 169.808 79.5789 169.499C79.589 169.189 79.5084 168.925 79.3322 168.707C79.156 168.489 78.874 168.372 78.4913 168.357L76.4117 168.286L76.3362 170.503L78.4158 170.575C78.7984 170.595 79.0855 170.493 79.2768 170.28ZM79.2818 165.297C79.4631 165.104 79.5588 164.86 79.5689 164.576C79.5789 164.292 79.4984 164.048 79.3272 163.84C79.156 163.632 78.879 163.52 78.4913 163.51L76.5729 163.444L76.5024 165.505L78.4208 165.571C78.8136 165.581 79.0955 165.494 79.2818 165.297Z"
          fill="white"/>
    <path d="M100.438 170.694L97.2804 171.354L96.3287 169.629L92.5523 170.42L92.3307 172.389L89.1736 173.049L91.087 159.732L93.4183 159.245L100.438 170.694ZM95.0145 167.259L93.2975 164.173L92.8745 167.71L95.0145 167.259Z"
          fill="white"/>
    <path d="M106.115 157.964L103.225 159.05L106.654 168.301L103.764 169.387L100.335 160.136L97.4444 161.222L96.4827 158.628L105.148 155.365L106.115 157.964Z"
          fill="white"/>
    <path d="M120.544 161.002L117.89 162.58L115.363 158.267L112.538 159.947L115.066 164.26L112.407 165.839L106.027 154.948L108.686 153.369L111.138 157.561L113.963 155.881L111.511 151.69L114.164 150.111L120.544 161.002Z"
          fill="white"/>
    <path d="M130.013 153.21L123.653 158.671L115.511 149.044L117.857 147.029L124.212 154.545L128.22 151.099L130.013 153.21Z"
          fill="white"/>
    <path d="M137.67 144.429L132.156 150.991L122.579 142.82L128.093 136.259L130.192 138.05L126.673 142.237L128.274 143.602L131.28 140.024L133.38 141.816L130.373 145.393L132.055 146.83L135.575 142.643L137.67 144.429Z"
          fill="white"/>
    <path d="M135.592 129.139L134.011 131.809L142.42 136.874L140.839 139.543L132.425 134.478L130.844 137.148L128.482 135.727L133.23 127.723L135.592 129.139Z"
          fill="white"/>
    <path d="M146.333 128.792L145.095 131.639L133.604 126.559L134.843 123.712L146.333 128.792Z" fill="white"/>
    <path d="M146.442 115.555C147.665 116.149 148.491 116.956 148.914 117.976C149.342 118.996 149.382 120.102 149.035 121.295C148.637 122.66 147.872 123.655 146.739 124.284C146.361 124.492 145.973 124.639 145.586 124.721C145.193 124.802 144.76 124.812 144.276 124.741C143.793 124.675 143.385 124.599 143.058 124.518C142.726 124.436 142.232 124.304 141.578 124.112C140.923 123.919 140.435 123.767 140.112 123.655C139.79 123.543 139.407 123.381 138.964 123.178C138.521 122.975 138.159 122.731 137.872 122.447C137.585 122.168 137.338 121.833 137.131 121.452C136.507 120.305 136.396 119.052 136.789 117.687C137.136 116.494 137.761 115.581 138.662 114.956C139.568 114.327 140.691 114.094 142.041 114.256L141.16 117.291C140.233 117.276 139.654 117.666 139.422 118.463C139.271 118.986 139.327 119.427 139.589 119.788C139.745 120.006 140.007 120.209 140.374 120.397C140.742 120.585 141.426 120.828 142.434 121.122C143.441 121.417 144.146 121.584 144.553 121.625C144.961 121.665 145.294 121.635 145.54 121.539C145.953 121.376 146.235 121.036 146.386 120.513C146.618 119.717 146.341 119.072 145.55 118.585L146.442 115.555Z"
          fill="white"/>
    <path d="M28.0346 73.842L26.1413 74.9331L26.8765 76.1765L25.0386 77.2372L26.0456 78.9677L27.9691 77.8969L27.2289 76.6282L29.0668 75.6081L28.0346 73.842Z"
          fill="white"/>
    <path d="M34.7518 49.7412C34.3892 49.4012 33.9612 49.1525 33.4627 48.9851C32.9693 48.8227 32.4657 48.7821 31.9572 48.8734C31.4486 48.9648 31.0106 49.2134 30.643 49.6093C30.2955 49.995 30.0337 50.5126 29.8675 51.1774C29.7064 51.8372 29.6007 52.6441 29.5503 53.6033C29.505 54.5574 29.5 55.7957 29.5302 57.308C29.3137 57.5262 29.1223 57.7089 28.9562 57.8612C28.785 58.0084 28.6138 58.1352 28.4476 58.2317C28.2613 57.7546 27.934 57.0949 27.4707 56.2575L27.37 56.2626L26.0407 58.2367C26.5644 58.9726 26.5996 61.0736 26.5996 61.0736L25.9904 61.9262L25.9853 61.9313C25.9501 61.9719 25.9148 62.0176 25.8796 62.0683L25.1847 63.0783L25.1646 63.1036C25.1344 63.1392 25.1042 63.1747 25.079 63.2153L24.3992 64.2455C24.364 64.2861 24.3338 64.3318 24.2985 64.3825L23.9662 64.9205C23.9662 64.9205 22.6318 66.4277 22.2643 66.8997C21.9017 67.3768 21.4083 67.9502 20.7889 68.6201L20.1293 69.3408L21.7154 70.848C22.1384 70.3405 22.4858 69.9599 22.7527 69.7062C23.0196 69.4473 23.2411 69.2748 23.4073 69.1936C23.5785 69.1124 23.7295 69.1073 23.8705 69.1733C23.9662 69.427 23.9863 69.8077 23.9209 70.3101C23.8554 70.8125 23.7195 71.3809 23.513 72.0153C23.3066 72.6496 23.0548 73.2789 22.7577 73.9032C22.365 74.7152 21.9672 75.314 21.5593 75.6997C21.1515 76.0854 20.7386 76.2986 20.3106 76.329C19.8826 76.3645 19.4244 76.263 18.941 76.0245C18.7597 75.9382 18.5684 75.8215 18.3619 75.6845C18.1555 75.5424 17.9188 75.3749 17.662 75.1821L17.4807 75.314L17.2139 77.2983C17.8181 77.8261 18.377 78.2169 18.8856 78.4656C19.5301 78.7751 20.1897 78.8766 20.8644 78.765C21.5392 78.6533 22.1938 78.3082 22.8332 77.7246C23.4727 77.141 24.0468 76.3138 24.5553 75.248C25.1243 74.0656 25.5171 72.9491 25.7285 71.9036C25.9451 70.8582 25.9652 69.9447 25.789 69.1682C25.6127 68.3917 25.2401 67.8132 24.6661 67.4275L24.9027 66.9251L26.6198 64.89L27.3851 63.7735L27.4204 63.7228L28.2109 62.6215C28.4526 62.2866 28.8152 60.8554 28.8706 60.5154C29.4093 60.2769 29.8927 59.9774 30.3106 59.612C30.7336 59.2466 31.2925 58.6884 31.9874 57.9322L33.2664 56.5366C33.8907 55.8566 34.3741 55.2983 34.7216 54.8619C35.064 54.4254 35.3258 54.0093 35.5071 53.6134C35.6883 53.2176 35.784 52.8014 35.8041 52.365C35.8243 51.9184 35.7488 51.4566 35.5725 50.9795C35.3963 50.4974 35.1244 50.0863 34.7518 49.7412ZM33.6893 52.7304C33.4174 53.0755 32.929 53.6337 32.2241 54.4051L31.0408 55.6942C31.0861 54.5472 31.1868 53.5881 31.3479 52.8217C31.509 52.0554 31.7306 51.5175 32.0126 51.213C32.1636 51.0455 32.355 50.944 32.5816 50.9034C32.8081 50.8628 33.0398 50.8831 33.2664 50.9541C33.4929 51.0303 33.6843 51.1368 33.8404 51.284C34.0569 51.487 34.1878 51.6748 34.2331 51.8473C34.1425 52.0859 33.9612 52.3802 33.6893 52.7304Z"
          fill="white"/>
    <path d="M29.3315 48.5873L28.8294 46.5274L26.6047 47.0133L27.0718 49.0631L29.3315 48.5873Z" fill="white"/>
    <path d="M48.179 47.6342L46.0642 47.5073L45.9685 49.517L48.1639 49.6744L48.2293 48.2026L50.324 48.365L50.4147 46.3147L48.2394 46.1879L48.179 47.6342Z"
          fill="white"/>
    <path d="M47.2369 44.3481C47.3527 43.9218 47.3729 43.4955 47.2973 43.0692C47.2218 42.648 47.0607 42.2318 46.819 41.8258C46.6075 41.4706 46.2399 41.0443 45.7213 40.5419C45.2077 40.0394 44.6689 39.5979 44.115 39.2173L43.964 39.3087L43.1885 41.4401C43.7726 41.8157 44.2661 42.1608 44.6639 42.4704C45.0617 42.785 45.3437 43.0743 45.5048 43.3483C45.5551 43.4295 45.5853 43.4904 45.5904 43.526C45.5149 43.6274 45.3437 43.7746 45.0768 43.9624C44.8099 44.1502 44.5229 44.343 44.2057 44.5308L43.7525 44.8099L43.7626 44.8404L42.7958 45.5001C42.7404 45.5204 42.685 45.5559 42.6296 45.5965L41.6427 46.302C41.5924 46.3273 41.542 46.3578 41.4866 46.3984L40.6961 46.9922C40.5853 47.0175 40.4695 47.0784 40.3436 47.1799C39.9962 47.4641 39.6991 47.6468 39.4473 47.728C39.1956 47.8143 38.9539 47.8042 38.7222 47.7027C38.4906 47.6012 38.2489 47.3982 37.9972 47.0835L32.8159 40.6231C32.5591 40.8261 32.3073 41.0291 32.0555 41.2371L31.3103 42.2775L36.3859 48.606C37.1663 49.5804 37.967 50.1133 38.7726 50.1945C39.5531 50.2757 40.3839 49.9762 41.2651 49.281L41.2802 49.3165L42.3628 48.5096L43.4605 47.723L43.536 47.6722L44.6286 46.9262C44.7243 46.8602 44.8099 46.7892 44.8804 46.7181L44.961 46.6674C45.7062 46.2157 46.245 45.8148 46.5773 45.4646C46.9147 45.1195 47.1312 44.7439 47.2369 44.3481Z"
          fill="white"/>
    <path d="M60.8831 26.4873C60.6666 26.5431 60.4501 26.604 60.2285 26.6649L58.874 27.4769L61.0191 35.1705C61.1651 35.6933 61.2456 36.1297 61.2557 36.4697C61.004 36.7032 60.5709 36.9011 59.9617 37.0787V37.1041L58.8489 37.4796H58.8438C58.7884 37.4898 58.7381 37.505 58.6777 37.5253L57.5397 37.9415H57.5296C57.4692 37.9516 57.4138 37.9719 57.3534 37.9973L56.2255 38.4337H56.2204C56.165 38.4439 56.1046 38.4642 56.0442 38.4896L55.2234 38.8296C55.0825 38.7941 54.9213 38.8245 54.7401 38.9108C54.3473 39.0986 54.0301 39.2153 53.7884 39.2508C53.5467 39.2914 53.305 39.2457 53.0683 39.1189C52.8317 38.9869 52.5396 38.7535 52.1922 38.4084C52.1469 38.3627 52.0865 38.3018 52.0059 38.2155C51.9253 38.1292 51.8146 38.0277 51.6836 37.9059C51.5024 37.7182 51.3161 37.5304 51.1298 37.3477C50.9435 37.1599 50.7622 36.9721 50.5809 36.7844L50.4047 36.8706L49.7551 39.195C50.732 39.9664 51.5276 40.6261 52.1419 41.1742C52.1217 41.7883 51.9354 42.4024 51.5829 43.0164C51.2305 43.6356 50.6363 44.3258 49.8055 45.0972L49.7803 45.3256L51.4571 46.3101C52.2426 45.63 52.8669 44.8536 53.3352 43.9908C53.8035 43.1281 53.9948 42.3009 53.8992 41.5041C54.2617 41.4939 54.6645 41.3925 55.1127 41.1895L55.1278 41.2656L56.3816 40.7479L56.447 40.7226L57.6505 40.2607L57.7008 40.2404L58.9042 39.804L58.9747 39.7786L60.2436 39.3523C60.3645 39.3117 60.4702 39.261 60.5609 39.2001C61.2507 38.9717 61.8096 38.7027 62.2376 38.3881C62.7613 38.0024 63.1037 37.4999 63.2698 36.8656C63.436 36.2363 63.3856 35.4344 63.1137 34.4651L60.8831 26.4873Z"
          fill="white"/>
    <path d="M65.1086 25.5148L63.6584 26.2355L66.0099 37.7709L66.1711 37.847L68.1046 37.0097L65.7884 25.3778C65.5618 25.4235 65.3352 25.4641 65.1086 25.5148Z"
          fill="white"/>
    <path d="M76.2692 34.4097C75.952 34.0393 75.7808 33.6688 75.7607 33.3034C75.7405 32.9837 75.811 32.7198 75.9822 32.5066C76.1484 32.2935 76.4001 32.1818 76.7476 32.1615C77.0094 32.1412 77.382 32.2021 77.8654 32.3392L78.3589 30.6746C78.0668 30.5528 77.7446 30.4563 77.382 30.3954C77.0195 30.3345 76.667 30.3142 76.3246 30.3345C75.7959 30.365 75.3427 30.5071 74.955 30.7608C74.5723 31.0146 74.2803 31.3495 74.0889 31.7657C73.8926 32.1818 73.812 32.6284 73.8422 33.1156C73.8724 33.684 74.0638 34.1915 74.4062 34.6483L73.0063 34.8208L73.2329 36.5869C74.4011 36.4702 75.4082 36.3535 76.2491 36.2367C77.09 36.12 78.087 35.9728 79.24 35.7851L78.9782 34.0393C78.092 34.1712 77.1907 34.2981 76.2692 34.4097Z"
          fill="white"/>
    <path d="M91.6282 40.271L93.174 41.9864L94.6997 40.5146L93.1589 38.8348L91.6282 40.271Z" fill="white"/>
    <path d="M96.9934 36.4831C97.8242 36.4679 98.5493 36.4933 99.1736 36.5593L100.191 34.6054C99.7829 34.4887 99.3499 34.2857 98.8917 33.9913C98.4335 33.7021 97.794 33.2199 96.9833 32.55C96.1877 31.8954 95.5986 31.4386 95.2008 31.1747C94.8081 30.9159 94.4254 30.7434 94.0477 30.6571C93.7708 30.5962 93.4838 30.5657 93.1867 30.5708C92.8896 30.5759 92.6278 30.6165 92.3961 30.6825L91.2129 32.4181L91.2783 32.5247C91.656 32.4993 92.0034 32.4942 92.3206 32.5044C92.6378 32.5145 92.9752 32.5653 93.3277 32.6465C93.7053 32.7277 94.0981 32.8901 94.4959 33.1286C94.8937 33.3671 95.377 33.7376 95.9511 34.2451C96.2985 34.5293 96.5402 34.7221 96.6862 34.8287C96.5905 34.8338 96.3539 34.8338 95.9813 34.8439C95.6036 34.849 95.2109 34.8642 94.793 34.8896C93.6902 34.9302 92.8191 34.9251 92.1897 34.8693C91.5553 34.8186 90.8805 34.7069 90.1554 34.5445L90.0799 34.7069L88.9873 34.5597C88.9319 34.5445 88.8715 34.5344 88.806 34.5242L87.5824 34.3872C87.5321 34.372 87.4716 34.3618 87.4112 34.3567L86.2128 34.2502L86.1776 34.2451C86.1373 34.2349 86.092 34.2299 86.0416 34.2248L85.0396 34.1537C84.9389 34.103 84.813 34.0776 84.6569 34.0725C84.2138 34.0573 83.8664 34.0015 83.6247 33.9C83.378 33.7985 83.2017 33.6361 83.0909 33.4077C82.9751 33.1793 82.9248 32.8647 82.9349 32.4638L83.1514 24.1104C82.8895 24.1002 82.6227 24.0901 82.3558 24.085L80.9358 24.4301L80.7294 32.5653C80.6992 33.8188 80.961 34.7424 81.525 35.3413C82.0688 35.9147 82.8946 36.2294 84.0174 36.2751L84.0074 36.3055L85.4122 36.407H85.4525H85.4676L86.6861 36.5237L86.7415 36.5288L88.0859 36.6811H88.1111L89.4253 36.8587C89.7023 36.8942 89.9389 36.8638 90.1252 36.7623C90.5029 36.813 90.8956 36.8384 91.3035 36.8435C92.0487 36.8536 93.0558 36.7927 94.3247 36.6608C95.2763 36.5593 96.1625 36.5034 96.9934 36.4831Z"
          fill="white"/>
    <path d="M118.944 34.894C118.526 34.6402 118.109 34.3916 117.691 34.148L116.94 33.9551L113.053 40.923C112.786 41.395 112.534 41.7604 112.303 42.0091C111.965 41.9888 111.517 41.8264 110.963 41.5117L110.948 41.532L109.896 41.0042L109.891 40.9992C109.851 40.9738 109.8 40.9433 109.745 40.918L108.642 40.3902C108.597 40.3597 108.547 40.3343 108.491 40.309L107.378 39.8066L107.373 39.8015C107.328 39.771 107.278 39.7457 107.222 39.7203L106.391 39.365C106.316 39.2432 106.18 39.1519 105.979 39.0808C105.581 38.9387 105.284 38.7966 105.092 38.6495C104.901 38.5074 104.765 38.3044 104.679 38.0405C104.599 37.7816 104.559 37.401 104.554 36.9138L104.559 34.6149L104.362 34.5438L102.283 35.7212C102.378 36.5484 102.474 37.5837 102.575 38.822C102.257 39.1265 101.834 39.3701 101.306 39.5579C100.777 39.7457 100.148 39.8624 99.4175 39.908C98.6824 39.9537 97.8767 39.903 96.9956 39.7507L96.8193 39.8776L97.3883 41.8162C98.2594 41.9634 99.0852 42.004 99.8707 41.938C100.651 41.8721 101.361 41.6995 101.996 41.4153C102.635 41.1362 103.154 40.7556 103.557 40.2887C103.854 40.5627 104.226 40.7911 104.669 40.9636L104.624 41.0296L105.868 41.5574L105.928 41.5828L107.101 42.1106L107.157 42.136L108.315 42.6891L108.375 42.7196L109.579 43.3235C109.695 43.3844 109.81 43.425 109.916 43.4504C110.556 43.7752 111.135 43.9782 111.653 44.0645C112.288 44.166 112.887 44.0543 113.446 43.7244C114.01 43.3996 114.533 42.7957 115.022 41.9177L118.944 34.894Z"
          fill="white"/>
    <path d="M121.807 36.71L121.197 36.502L114.752 46.322L114.813 46.4946L116.766 47.2812L123.156 37.6337C122.713 37.319 122.26 37.0145 121.807 36.71Z"
          fill="white"/>
    <path d="M131.177 57.4214C131.232 57.2133 131.227 56.9444 131.157 56.6094C131.086 56.2745 130.93 55.8482 130.693 55.3254C130.457 54.8332 130.291 54.4576 130.185 54.2039C130.084 53.9501 130.024 53.742 130.009 53.5695C129.994 53.3969 130.039 53.2548 130.145 53.1432C130.306 52.9859 130.527 52.8844 130.824 52.8438C131.116 52.8032 131.429 52.8285 131.751 52.93C132.078 53.0265 132.365 53.199 132.607 53.4375C132.783 53.6152 132.949 53.8334 133.105 54.0922C133.256 54.351 133.377 54.5997 133.463 54.8332L133.564 54.8585L135.336 53.6253C135.25 53.3716 135.114 53.0975 134.928 52.7981C134.742 52.4987 134.525 52.2246 134.274 51.976C133.72 51.4279 133.065 51.1234 132.305 51.0574C131.539 50.9965 130.804 51.1031 130.089 51.3822C129.369 51.6613 128.805 52.0166 128.382 52.4429C128.07 52.7677 127.884 53.0874 127.828 53.4122C127.768 53.737 127.788 54.0567 127.884 54.3663C127.979 54.6758 128.151 55.0768 128.387 55.5589C128.599 56.0156 128.725 56.3506 128.77 56.5587C128.815 56.7718 128.785 56.9241 128.689 57.0256C128.669 57.0459 128.624 57.0763 128.538 57.127C128.251 57.1118 127.899 57.0205 127.481 56.853C127.063 56.6906 126.61 56.447 126.121 56.1222C125.638 55.7974 125.165 55.4066 124.706 54.955C124.032 54.2901 123.579 53.7014 123.342 53.1838C123.105 52.6662 123.045 52.2043 123.151 51.7983C123.256 51.3923 123.503 50.9863 123.891 50.5905C124.032 50.4484 124.198 50.2961 124.394 50.1388C124.586 49.9815 124.817 49.814 125.079 49.6262L125.039 49.4385L123.236 48.5199C122.582 48.9056 122.043 49.3167 121.615 49.7582C121.106 50.2809 120.789 50.8747 120.663 51.5395C120.532 52.1993 120.648 52.93 121 53.7268C121.353 54.5236 121.967 55.3559 122.848 56.2288C123.745 57.1169 124.706 57.7969 125.734 58.274C126.761 58.751 127.728 58.9642 128.629 58.9236C129.535 58.883 130.265 58.5734 130.829 57.9999C131.001 57.8223 131.116 57.6295 131.177 57.4214Z"
          fill="white"/>
    <path d="M121.203 58.1192L120.8 56.0233L118.846 56.4293L119.239 58.6115L120.669 58.3121L121.037 60.3928L123.025 59.9716L122.608 57.8147L121.203 58.1192Z"
          fill="white"/>
    <path d="M137.936 61.4237C138.353 60.429 138.681 59.2719 138.922 57.9423L138.822 57.8002L136.44 57.8662C136.329 58.7594 136.148 59.6424 135.886 60.5204C135.624 61.4034 135.332 62.0429 135.01 62.4387C134.799 62.3474 134.517 62.119 134.174 61.7485C133.832 61.378 133.52 61.0025 133.248 60.6269C133.046 60.3529 132.83 60.0382 132.603 59.683C132.372 59.3328 132.22 59.0639 132.15 58.8862L132.019 58.8304L130.116 59.8505C130.216 60.0687 130.393 60.3833 130.644 60.7944C130.891 61.2055 131.133 61.5658 131.359 61.8805C131.878 62.5859 132.422 63.1391 132.996 63.5349C133.57 63.9307 134.149 64.1388 134.733 64.154C135.312 64.1743 135.861 63.9866 136.385 63.6009C136.999 63.1441 137.518 62.4184 137.936 61.4237Z"
          fill="white"/>
    <path d="M148.082 71.5397L147.554 73.8021L149.618 74.2222L150.121 71.9851L148.082 71.5397Z" fill="white"/>
    <path d="M144.483 73.6014C144.005 74.1444 143.587 74.5859 143.234 74.931C142.877 75.2761 142.549 75.5045 142.257 75.6263C142.172 75.6618 142.106 75.6821 142.071 75.6821C141.985 75.5908 141.865 75.3979 141.724 75.1036C141.578 74.8092 141.437 74.4895 141.301 74.1444L141.23 73.982L141.21 73.9871L140.711 72.9061C140.696 72.8554 140.676 72.7996 140.646 72.7437L140.122 71.6678V71.6628C140.102 71.6019 140.072 71.5359 140.037 71.4699L139.468 70.3585L139.458 70.328C139.448 70.2925 139.427 70.257 139.407 70.2215L138.934 69.3384C138.924 69.2268 138.879 69.105 138.798 68.968C138.566 68.5823 138.43 68.2575 138.38 67.9936C138.335 67.7347 138.375 67.4962 138.506 67.278C138.637 67.0598 138.874 66.8466 139.216 66.6385L145.858 62.6039C145.495 61.9594 145.122 61.32 144.735 60.6907L137.942 64.8217C136.875 65.4662 136.245 66.1869 136.049 66.9836C135.857 67.755 136.044 68.6279 136.608 69.6023L136.572 69.6125L137.217 70.8L137.252 70.8711L137.836 72.0129L137.861 72.0637L138.43 73.2309L138.461 73.2918L139.025 74.52C139.075 74.6215 139.125 74.7128 139.186 74.794C139.478 75.4893 139.755 76.012 140.017 76.3622C140.304 76.7479 140.631 77.027 141.004 77.1945C141.416 77.3569 141.834 77.4381 142.262 77.4381C142.69 77.433 143.118 77.3467 143.546 77.1691C143.939 77.0118 144.417 76.7174 144.986 76.2861C145.555 75.8598 146.069 75.3929 146.522 74.8904L146.457 74.723L144.483 73.6014Z"
          fill="white"/>
    <path d="M81.3278 150.004C89.7972 150.004 96.6855 143.062 96.6855 134.526C96.6855 125.99 89.7972 119.047 81.3278 119.047C72.8585 119.047 65.9702 125.99 65.9702 134.526C65.9702 143.062 72.8585 150.004 81.3278 150.004ZM95.6935 134.526C95.6935 137.652 94.7016 140.545 93.0248 142.915H89.3944C88.5585 142.915 87.768 142.514 87.2695 141.834L85.8445 139.895C85.3359 139.205 85.1899 138.306 85.4568 137.484L86.4286 134.475C86.6804 133.698 87.2644 133.084 88.0248 132.8L90.2453 131.973C91.0762 131.663 92.0026 131.79 92.7177 132.318L95.6935 134.5C95.6935 134.505 95.6935 134.515 95.6935 134.526ZM81.8263 125.056C81.8263 124.203 82.2292 123.401 82.914 122.899L85.8193 120.772C88.6743 121.721 91.1366 123.548 92.8838 125.939L91.8214 129.237C91.5696 130.014 90.9855 130.628 90.2252 130.912L87.8586 131.795C87.0278 132.105 86.1013 131.978 85.3863 131.45L82.914 129.638C82.2292 129.136 81.8263 128.334 81.8263 127.482V125.056ZM82.9039 139.382C83.7397 139.382 84.5303 139.783 85.0288 140.463L86.4387 142.387C86.9472 143.077 87.0932 143.975 86.8264 144.797L85.6934 148.319C84.3138 148.766 82.8485 149.004 81.3228 149.004C79.8122 149.004 78.357 148.766 76.9925 148.33L75.8595 144.818C75.5977 144.006 75.7387 143.118 76.2372 142.427L77.642 140.484C78.1405 139.793 78.9361 139.387 79.782 139.387H82.9039V139.382ZM76.8364 120.772L79.7417 122.899C80.4265 123.401 80.8293 124.203 80.8293 125.056V127.482C80.8293 128.334 80.4215 129.136 79.7417 129.638L77.2342 131.476C76.5242 131.993 75.6027 132.125 74.7769 131.826L72.5362 131.009C71.7709 130.73 71.1717 130.105 70.9199 129.324L69.8071 125.873C71.5594 123.518 74.0015 121.716 76.8364 120.772ZM66.9622 134.602L69.9833 132.389C70.6933 131.871 71.6148 131.739 72.4406 132.039L74.6309 132.841C75.3963 133.12 75.9955 133.744 76.2472 134.526L77.214 137.52C77.4758 138.332 77.3349 139.22 76.8364 139.91L75.4768 141.793C74.9783 142.483 74.1828 142.889 73.3368 142.889H69.6107C67.9592 140.539 66.9773 137.682 66.9622 134.602Z"
          fill="white"/>
    <path d="M79.9732 183.583C69.1524 183.583 58.8351 181.442 49.3989 177.57V208.618C58.8351 204.746 69.1574 202.604 79.9732 202.604C90.794 202.604 101.111 204.746 110.547 208.618V177.57C101.116 181.442 90.794 183.583 79.9732 183.583Z"
          fill="white"/>
    <path d="M159.941 100.489C159.941 145.007 124.14 181.09 79.9707 181.09C35.8062 181.09 0.000244141 145.007 0.000244141 100.489C0.000244141 66.9435 20.3378 38.1837 49.2655 26.0494V12.3013H67.0803L71.2244 16.3714L70.0109 23.5119C52.7247 25.7601 37.2412 33.7837 25.514 45.6033C11.5713 59.6559 2.95596 79.0524 2.95596 100.489C2.95596 121.931 11.5713 141.327 25.514 155.375C39.4567 169.427 58.6966 178.111 79.9707 178.111C101.245 178.111 120.49 169.427 134.432 155.375C148.37 141.327 156.985 121.931 156.985 100.489C156.985 79.0524 148.37 59.6559 134.432 45.6033C122.7 33.7837 107.217 25.7601 89.9305 23.5119L88.7169 16.3714L92.861 12.3013H110.676V26.0494C139.604 38.1837 159.941 66.9435 159.941 100.489Z"
          fill="white"/>
    <path d="M79.9735 0L76.0359 8.04383L67.2241 9.33795L73.5988 15.6005L72.0932 24.4461L79.9735 20.2644L87.8537 24.4461L86.3481 15.6005L92.7279 9.33795L83.9111 8.04383L79.9735 0Z"
          fill="#D7A036"/>
    <path d="M119.721 60.4349C109.55 50.1835 95.4962 43.8398 79.9775 43.8398C48.9349 43.8398 23.7686 69.2045 23.7686 100.492C23.7686 116.138 30.0576 130.297 40.2339 140.548C50.4052 150.8 64.4587 157.144 79.9775 157.144C95.4962 157.144 109.55 150.8 119.721 140.548C129.897 130.297 136.186 116.138 136.186 100.492C136.186 84.8455 129.897 70.6864 119.721 60.4349ZM118.679 139.498C113.724 144.487 107.828 148.526 101.282 151.318C94.7308 154.109 87.5354 155.652 79.9775 155.652C72.4195 155.652 65.2241 154.109 58.6732 151.318C52.1273 148.526 46.231 144.487 41.2762 139.498C36.3215 134.504 32.3185 128.561 29.5491 121.964C26.7797 115.366 25.2489 108.109 25.2489 100.492C25.2489 85.2566 31.3718 71.473 41.2762 61.4854C46.231 56.4967 52.1273 52.4571 58.6732 49.6658C65.2241 46.8746 72.4195 45.3318 79.9775 45.3318C87.5354 45.3318 94.7308 46.8746 101.282 49.6658C107.828 52.4571 113.724 56.4967 118.679 61.4854C123.633 66.4792 127.636 72.422 130.406 79.0195C133.175 85.6169 134.706 92.8741 134.706 100.492C134.706 108.109 133.175 115.366 130.406 121.964C127.636 128.561 123.633 134.504 118.679 139.498Z"
          fill="white"/>
    <path d="M60.4268 185.934L58.2112 190.45L53.2666 191.176L56.8467 194.693L56.0008 199.656L60.4268 197.312L64.8478 199.656L64.0018 194.693L67.5869 191.176L62.6373 190.45L60.4268 185.934Z"
          fill="#D7A036"/>
    <path d="M79.9837 185.934L77.7732 190.45L72.8235 191.176L76.4036 194.693L75.5577 199.656L79.9837 197.312L84.4097 199.656L83.5638 194.693L87.1438 191.176L82.1942 190.45L79.9837 185.934Z"
          fill="#D7A036"/>
    <path d="M99.5291 185.934L97.3186 190.45L92.3689 191.176L95.949 194.693L95.1031 199.656L99.5291 197.312L103.955 199.656L103.109 194.693L106.689 191.176L101.74 190.45L99.5291 185.934Z"
          fill="#D7A036"/>
    <path d="M78.552 79.3616C78.552 79.3616 74.7906 80.8182 71.4421 79.4225C68.0786 78.0269 62.9778 74.038 60.143 72.3125C57.4239 70.6581 51.875 66.0195 49.6998 71.9471C49.5991 72.3683 48.4309 75.0987 49.2969 74.6013C56.0493 70.3992 64.282 78.0777 68.8943 80.6456C69.8611 81.1835 75.8279 84.5787 78.552 79.3616Z"
          fill="white"/>
    <path d="M52.7504 74.9617C51.4765 75.0429 50.2227 75.3728 49.0394 76.0376C47.9417 87.2584 44.2861 126.975 44.0293 127.746C44.845 127.432 47.1461 125.975 47.5993 121.256C48.0475 116.536 51.7887 77.3266 51.7887 77.3266C51.7887 77.3266 51.7786 75.3372 52.7504 74.9617Z"
          fill="white"/>
    <path d="M65.2407 79.5977C65.3565 79.9225 65.4018 80.3995 65.3313 81.1506C65.1601 82.9167 64.1279 115.417 64.0322 115.894C64.3545 115.782 67.431 115.077 67.1038 109.439C67.4059 103.79 68.2669 81.5414 68.2669 81.5414C67.8993 81.4602 66.8016 80.6381 65.2407 79.5977Z"
          fill="white"/>
    <path d="M54.0884 74.9658C54.3452 75.1079 54.461 75.4987 54.3653 76.5391C54.1689 78.564 51.2082 124.437 51.0974 124.934C51.329 124.756 54.179 122.199 54.5617 117.56C54.9444 112.927 57.0944 76.5949 57.0944 76.5949C57.0944 76.5949 57.0894 75.8539 57.5174 75.6408C56.3945 75.2855 55.2415 75.0369 54.0884 74.9658Z"
          fill="white"/>
    <path d="M60.2227 78.4621C60.1018 80.3449 57.4482 120.65 57.4482 120.65C57.4482 120.65 60.2378 119.443 60.6356 116.321C60.7514 113.205 62.7101 79.2386 62.7101 79.2386C62.7101 79.2386 62.7504 78.5027 63.6316 78.5738C62.3778 77.8024 60.9528 77.0107 59.4372 76.3611C59.9407 76.7772 60.2881 77.3964 60.2227 78.4621Z"
          fill="white"/>
    <path d="M90.2333 80.4323C94.8054 77.773 102.902 69.9321 109.73 73.9972C110.601 74.4793 109.388 71.7693 109.282 71.3531C107.011 65.4712 101.538 70.2163 98.8487 71.9266C96.0491 73.7079 91.0088 77.7983 87.6704 79.265C84.3421 80.7266 80.5605 79.3462 80.5605 79.3462C83.3652 84.5024 89.2766 80.9854 90.2333 80.4323Z"
          fill="white"/>
    <path d="M121.238 115.091C120.705 110.991 116.752 79.1402 115.604 71.5226C114.456 63.9051 110.559 61.2509 109.99 60.7434C112.472 60.378 114.169 59.1651 114.803 58.6424C109.697 60.3171 107.27 58.6322 105.992 58.6474C104.713 58.6576 101.253 61.7736 93.9874 68.4269C92.5423 70.0103 91.2734 70.868 90.1656 71.2131C90.0448 71.2334 89.9239 71.2486 89.8031 71.2587C89.5866 71.4161 86.4395 70.6396 84.1635 62.0781C83.5996 60.1293 83.3025 57.9116 83.6651 56.4703C84.088 55.7496 87.2905 54.1865 88.9924 54.7448C88.9924 54.7448 88.0256 53.1817 85.8101 53.0853C84.8685 53.3187 83.3378 52.0906 82.663 51.918C81.9833 51.7404 77.4717 50.5732 75.6036 53.1969C75.1 53.9023 74.6368 56.0491 74.6972 57.3787C74.6972 57.3787 74.5059 64.8084 74.2138 65.9452C74.0376 66.6405 73.8462 68.366 73.1413 69.721C71.5451 71.8627 68.9368 72.9233 64.959 68.7213C57.5823 62.2101 54.0777 59.1702 52.7987 59.1854C51.5198 59.1955 49.1179 60.9312 43.987 59.3579C44.6315 59.8654 46.3485 61.0428 48.836 61.3625C48.272 61.8802 44.42 64.6156 43.4029 72.2534C42.3807 79.8963 38.9467 111.818 38.4834 115.924C38.0202 120.034 36.6959 128.266 35.3867 130.793C35.3867 130.793 38.418 131.23 39.5459 125.119C40.6788 119.009 44.2589 90.3203 44.5812 86.8084C44.8984 83.2966 45.2106 78.7849 45.4724 76.8564C45.7342 74.933 45.84 71.005 47.0031 68.9039C47.6879 67.8128 51.2277 61.7229 55.3416 66.9653C55.5279 67.148 57.255 65.4631 60.5279 67.0161C61.3688 67.4728 68.1815 77.2472 73.5391 72.3245C73.5895 73.0401 73.8311 73.9637 74.7677 73.9637C75.6791 73.9637 76.5955 73.578 77.0185 71.7053C77.1997 72.091 77.4465 74.2225 78.66 74.2885C79.2088 74.2885 80.4274 73.7049 80.4274 71.1877C80.4274 72.4767 80.6086 74.2225 81.8876 74.2225C82.7386 74.2225 83.5895 73.9637 83.7758 72.8015C83.9571 71.6394 83.8967 71.5125 84.2038 72.157C84.506 72.8015 85.6641 74.3494 87.0035 73.4461C87.0891 73.3902 87.1595 73.3293 87.225 73.2634C92.2502 75.0294 97.648 67.0516 98.3933 66.6304C101.646 65.0114 103.393 66.6608 103.58 66.473C107.613 61.1494 111.248 67.1683 111.948 68.2493C113.147 70.3249 113.323 74.2479 113.615 76.1662C113.907 78.0846 114.295 82.5912 114.667 86.098C115.045 89.6048 119.098 118.212 120.332 124.302C121.561 130.387 124.587 129.89 124.587 129.89C123.227 127.393 121.767 119.187 121.238 115.091Z"
          fill="white"/>
    <path d="M106.295 74.4231C107.267 74.7834 107.292 76.7677 107.292 76.7677C107.292 76.7677 111.678 115.896 112.207 120.605C112.735 125.315 115.057 126.726 115.882 127.025C115.61 126.259 111.3 86.6182 110.021 75.4229C108.828 74.7834 107.574 74.4789 106.295 74.4231Z"
          fill="white"/>
    <path d="M93.8694 79.3061C92.3286 80.3769 91.241 81.2194 90.8784 81.3107C90.8784 81.3107 92.102 103.534 92.4998 109.177C92.2631 114.821 95.3548 115.465 95.677 115.572C95.5763 115.095 94.0053 82.6201 93.809 80.859C93.7234 80.113 93.7636 79.636 93.8694 79.3061Z"
          fill="white"/>
    <path d="M104.952 74.4536C103.804 74.5501 102.656 74.819 101.533 75.1997C101.966 75.4077 101.972 76.1487 101.972 76.1487C101.972 76.1487 104.721 112.43 105.179 117.058C105.637 121.686 108.527 124.188 108.764 124.361C108.643 123.864 104.927 78.062 104.701 76.0421C104.585 74.9967 104.696 74.6008 104.952 74.4536Z"
          fill="white"/>
    <path d="M99.6176 75.9571C98.1121 76.6372 96.6972 77.4593 95.4585 78.251C96.3346 78.1597 96.39 78.9006 96.39 78.9006C96.39 78.9006 98.9077 112.822 99.0738 115.938C99.522 119.049 102.332 120.201 102.332 120.201C102.332 120.201 99.0184 79.9511 98.8674 78.0734C98.7818 77.0127 99.1242 76.3834 99.6176 75.9571Z"
          fill="white"/>
    <path d="M88.0317 111.417C88.4143 111.528 88.5906 111.919 88.8323 111.599C88.8826 111.528 89.0337 110.955 89.23 109.985C89.3861 110.031 89.512 110.112 89.5573 110.163C89.7537 108.432 89.8846 106.783 89.9702 105.215C90.6148 99.7086 90.937 91.4618 88.938 83.7935C88.938 83.7935 87.9712 83.7224 88.2029 84.8491C88.4345 85.9757 88.9229 95.0954 88.9984 98.2571C89.0538 100.642 88.9732 104.058 88.7416 106.098C88.5855 106.666 88.1324 106.428 87.5533 106.22C86.9843 106.022 86.6016 106.6 86.4153 107.199C86.3247 107.286 86.2441 107.407 86.1887 107.585L86.2743 107.773C86.1334 108.306 85.9269 108.707 85.4284 108.707C85.1061 108.701 84.8896 108.61 84.7386 108.458L84.7486 108.453C84.7335 108.443 84.7184 108.432 84.7033 108.422C84.3156 107.981 84.4264 107.088 84.3408 106.24C84.2904 105.783 84.1998 105.631 84.0689 105.631C84.0487 105.347 84.0387 105.159 84.0387 105.159C84.0387 105.159 83.4042 105.459 83.3589 105.91C83.0417 106.062 81.088 104.281 80.2824 104.332C79.4717 104.388 77.6489 105.672 77.0547 106.265C76.954 106.23 76.8533 106.169 76.7526 106.103C76.5361 105.885 76.2189 105.768 76.2189 105.768C76.2189 105.768 76.2189 105.783 76.2189 105.809C76.0829 105.814 75.9973 105.966 75.9822 106.443C75.947 107.636 76.3045 108.869 75.0809 109.011C74.4918 109.067 74.2702 108.529 74.0738 107.864C73.8775 107.209 73.4142 106.453 72.7798 106.748C72.1403 107.047 71.672 107.377 71.521 106.474L70.4283 98.9575C70.4283 98.7799 70.4283 98.6022 70.4283 98.4348C70.4535 95.2731 70.7908 86.1432 71.0023 85.0165C71.2188 83.8899 70.2571 83.9762 70.2571 83.9762C68.1372 92.7001 69.0033 102.114 69.8794 107.443C70.3074 110.026 70.7354 111.65 70.821 111.772C71.098 112.122 71.2692 111.589 71.7526 111.538L72.2762 110.934C72.3316 111.011 72.382 111.102 72.4273 111.214C72.6035 111.645 72.9107 112.701 73.2027 113.832C73.5854 115.279 73.9429 116.847 73.9832 117.364C74.0638 118.298 73.8019 119.496 73.3689 119.917C73.102 120.171 72.3568 120.734 71.8382 121.592C71.5159 122.13 71.3246 122.79 71.3145 123.561C71.3145 123.698 71.3951 124.058 71.3195 123.85L71.4303 124.241C71.3447 123.708 71.3649 123.784 71.4303 124.241C71.4605 124.459 71.4756 124.622 71.4807 124.743C71.4958 124.708 71.5109 124.672 71.5361 124.637C71.8029 124.195 73.1373 122.825 73.4948 122.226C73.8523 121.627 75.096 120.404 75.096 120.404C74.8795 121.155 74.9953 122.505 75.0859 123.109C75.1816 123.713 75.0658 122.901 75.1967 123.678C75.2722 124.134 75.4686 124.368 75.6801 125.165L75.7103 125.297C75.7254 125.515 75.8664 125.728 75.9218 125.51C76.1836 124.495 77.1403 123.328 76.7577 120.927C76.9742 120.328 77.9158 119.521 78.6257 119.293C78.7768 119.273 78.948 119.262 79.1343 119.252C79.1494 119.257 79.1645 119.257 79.1796 119.262L79.1847 119.247C79.4314 119.232 79.7134 119.227 80.0255 119.232C80.1111 119.298 80.3025 119.344 80.6751 119.328C81.7728 119.293 82.5331 119.344 83.0769 119.435C83.7265 119.709 84.4314 120.272 84.6429 120.739C84.4365 123.17 85.4687 124.241 85.8061 125.22C85.8765 125.429 86.0024 125.205 86.0024 124.987L86.0226 124.855C86.1736 124.043 86.3549 123.789 86.3952 123.328C86.4657 122.541 86.4103 123.363 86.4606 122.754C86.511 122.145 86.5261 120.785 86.2542 120.059C86.2542 120.059 87.5785 121.155 87.9813 121.714C88.3791 122.272 89.8041 123.505 90.1062 123.916C90.1314 123.952 90.1515 123.982 90.1666 124.018C90.1616 123.896 90.1616 123.734 90.1767 123.515C90.2069 123.053 90.222 122.972 90.1767 123.515L90.2623 123.114C90.2019 123.333 90.2573 122.962 90.2421 122.825C90.1767 122.054 89.935 121.419 89.5725 120.917C88.9934 120.11 88.2129 119.628 87.9259 119.405C87.4627 119.034 87.1152 117.862 87.1303 116.923C87.1354 116.405 87.3771 114.807 87.654 113.325C87.7749 112.619 87.9108 111.939 88.0317 111.417ZM85.4939 116.557C84.935 116.969 83.6006 117.74 81.8735 118.11H81.8685L81.8433 118.121C81.798 118.131 81.7577 118.141 81.7124 118.151H81.7073V118.156C81.7073 118.156 81.7073 118.156 81.7023 118.156H81.7073L81.7124 118.171L80.665 118.557L79.4616 118.09L79.4717 118.06V118.055L79.4666 118.06C77.6388 117.892 76.1937 117.217 75.5895 116.857C74.9349 116.471 74.6177 114.796 74.4817 113.259C74.3709 111.944 74.3961 110.731 74.4767 110.498C74.9449 110.716 75.2219 110.473 75.4686 110.148C75.6801 109.584 75.9369 109.351 76.1836 109.295L76.8281 109.524C76.9339 109.62 77.0195 109.732 77.0799 109.828C77.3317 110.244 77.4978 110.28 77.8654 109.889C77.8503 109.316 77.9107 108.823 78.0265 108.397C78.2934 107.554 78.8423 106.677 79.9802 106.382C80.8262 106.265 82.5986 107.098 82.7194 109.853C83.1172 110.204 83.2783 110.153 83.4999 109.716C83.7164 109.265 84.4818 108.493 85.1263 109.869C85.3982 110.168 85.6902 110.381 86.1384 110.117C86.2341 110.341 86.3499 111.548 86.3348 112.868C86.3146 114.406 86.1182 116.106 85.4939 116.557Z"
          fill="white"/>
</svg>
